<svg xmlns="http://www.w3.org/2000/svg" xmlns:xlink="http://www.w3.org/1999/xlink" zoomAndPan="magnify" preserveAspectRatio="xMidYMid meet" version="1.2" viewBox="86 369 628.53 102"><defs><clipPath id="9434dcbb4a"><path d="M 86.238281 369.679688 L 189.730469 369.679688 L 189.730469 470.988281 L 86.238281 470.988281 Z M 86.238281 369.679688 "/></clipPath><clipPath id="eb0a6cca7b"><path d="M 145.273438 470.742188 C 146.597656 470.742188 147.792969 469.953125 148.316406 468.746094 L 189.1875 374.902344 C 189.570312 374.015625 189.121094 372.996094 188.210938 372.679688 C 183.117188 370.894531 177.636719 369.917969 171.929688 369.917969 C 148.875 369.917969 129.539062 385.75 124.160156 407.136719 C 122.328125 406.808594 120.453125 406.632812 118.539062 406.632812 C 100.832031 406.632812 86.46875 421 86.476562 438.703125 C 86.488281 456.453125 101.09375 470.742188 118.84375 470.742188 Z M 145.273438 470.742188 "/></clipPath><clipPath id="76ce5fbda4"><path d="M 0.398438 0.839844 L 103.601562 0.839844 L 103.601562 101.878906 L 0.398438 101.878906 Z M 0.398438 0.839844 "/></clipPath><clipPath id="4b6b345da6"><path d="M 59.273438 101.742188 C 60.597656 101.742188 61.792969 100.953125 62.316406 99.746094 L 103.1875 5.902344 C 103.570312 5.015625 103.121094 3.996094 102.210938 3.679688 C 97.117188 1.894531 91.636719 0.917969 85.929688 0.917969 C 62.875 0.917969 43.539062 16.75 38.160156 38.136719 C 36.328125 37.808594 34.453125 37.632812 32.539062 37.632812 C 14.832031 37.632812 0.46875 52 0.476562 69.703125 C 0.488281 87.453125 15.09375 101.742188 32.84375 101.742188 Z M 59.273438 101.742188 "/></clipPath><clipPath id="65517e8020"><rect x="0" width="104" y="0" height="102"/></clipPath><clipPath id="e276b71bc4"><path d="M 158.292969 378 L 257.417969 378 L 257.417969 470.988281 L 158.292969 470.988281 Z M 158.292969 378 "/></clipPath><clipPath id="448f80bbd2"><path d="M 219.886719 396.421875 C 218.484375 396.421875 217.105469 396.511719 215.734375 396.664062 C 211.964844 389.355469 206.421875 383.097656 199.671875 378.488281 C 199.058594 378.058594 198.203125 378.3125 197.90625 379 L 158.605469 469.25 C 158.300781 469.953125 158.816406 470.742188 159.582031 470.742188 L 221.191406 470.742188 L 221.191406 470.71875 C 241.109375 470.03125 257.050781 453.671875 257.050781 433.585938 C 257.050781 413.066406 240.410156 396.421875 219.886719 396.421875 "/></clipPath><clipPath id="b0dc6e0c8c"><path d="M 0.292969 0 L 99.28125 0 L 99.28125 92.878906 L 0.292969 92.878906 Z M 0.292969 0 "/></clipPath><clipPath id="9b211d7218"><path d="M 61.886719 18.421875 C 60.484375 18.421875 59.105469 18.511719 57.734375 18.664062 C 53.964844 11.355469 48.421875 5.097656 41.671875 0.488281 C 41.058594 0.0585938 40.203125 0.3125 39.90625 1 L 0.605469 91.25 C 0.300781 91.953125 0.816406 92.742188 1.582031 92.742188 L 63.191406 92.742188 L 63.191406 92.71875 C 83.109375 92.03125 99.050781 75.671875 99.050781 55.585938 C 99.050781 35.066406 82.410156 18.421875 61.886719 18.421875 "/></clipPath><clipPath id="920ea999ad"><rect x="0" width="100" y="0" height="93"/></clipPath><clipPath id="e802d95764"><path d="M 112.441406 409 L 150.429688 409 L 150.429688 450.464844 L 112.441406 450.464844 Z M 112.441406 409 "/></clipPath><clipPath id="e23c18afc8"><path d="M 150.234375 450.199219 L 112.578125 433.585938 L 112.578125 428.164062 L 150.234375 409.351562 L 150.234375 418.457031 L 124.300781 430.476562 L 150.246094 441.136719 Z M 150.234375 450.199219 "/></clipPath><clipPath id="a69be5fa7d"><path d="M 0.558594 0.199219 L 38.429688 0.199219 L 38.429688 41.238281 L 0.558594 41.238281 Z M 0.558594 0.199219 "/></clipPath><clipPath id="b8fc265394"><path d="M 38.234375 41.199219 L 0.578125 24.585938 L 0.578125 19.164062 L 38.234375 0.351562 L 38.234375 9.457031 L 12.300781 21.476562 L 38.246094 32.136719 Z M 38.234375 41.199219 "/></clipPath><clipPath id="a62fa02fd3"><rect x="0" width="39" y="0" height="42"/></clipPath><clipPath id="f261e19261"><path d="M 190.605469 409 L 228.597656 409 L 228.597656 450.464844 L 190.605469 450.464844 Z M 190.605469 409 "/></clipPath><clipPath id="feb3ffdca3"><path d="M 190.839844 441.125 L 216.785156 430.464844 L 190.839844 418.457031 L 190.839844 409.351562 L 228.5 428.164062 L 228.5 433.585938 L 190.839844 450.199219 Z M 190.839844 441.125 "/></clipPath><clipPath id="fdffd10cbe"><path d="M 0.800781 0.199219 L 38.597656 0.199219 L 38.597656 41.238281 L 0.800781 41.238281 Z M 0.800781 0.199219 "/></clipPath><clipPath id="bed8598d80"><path d="M 0.839844 32.125 L 26.785156 21.464844 L 0.839844 9.457031 L 0.839844 0.351562 L 38.5 19.164062 L 38.5 24.585938 L 0.839844 41.199219 Z M 0.839844 32.125 "/></clipPath><clipPath id="fe2fc2c34d"><rect x="0" width="39" y="0" height="42"/></clipPath><clipPath id="474cc93d0e"><rect x="0" width="448" y="0" height="97"/></clipPath></defs><g id="671c16f49f"><g clip-rule="nonzero" clip-path="url(#9434dcbb4a)"><g clip-rule="nonzero" clip-path="url(#eb0a6cca7b)"><g transform="matrix(1,0,0,1,86,369)"><g clip-path="url(#65517e8020)"><g clip-rule="nonzero" clip-path="url(#76ce5fbda4)"><g clip-rule="nonzero" clip-path="url(#4b6b345da6)"><rect x="0" width="104" height="102" y="0" style="fill:#224fa2;fill-opacity:1;stroke:none;"/></g></g></g></g></g></g><g clip-rule="nonzero" clip-path="url(#e276b71bc4)"><g clip-rule="nonzero" clip-path="url(#448f80bbd2)"><g transform="matrix(1,0,0,1,158,378)"><g clip-path="url(#920ea999ad)"><g clip-rule="nonzero" clip-path="url(#b0dc6e0c8c)"><g clip-rule="nonzero" clip-path="url(#9b211d7218)"><rect x="0" width="100" height="93" y="0" style="fill:#224fa2;fill-opacity:1;stroke:none;"/></g></g></g></g></g></g><g clip-rule="nonzero" clip-path="url(#e802d95764)"><g clip-rule="nonzero" clip-path="url(#e23c18afc8)"><g transform="matrix(1,0,0,1,112,409)"><g clip-path="url(#a62fa02fd3)"><g clip-rule="nonzero" clip-path="url(#a69be5fa7d)"><g clip-rule="nonzero" clip-path="url(#b8fc265394)"><rect x="0" width="39" height="42" y="0" style="fill:#ffffff;fill-opacity:1;stroke:none;"/></g></g></g></g></g></g><g clip-rule="nonzero" clip-path="url(#f261e19261)"><g clip-rule="nonzero" clip-path="url(#feb3ffdca3)"><g transform="matrix(1,0,0,1,190,409)"><g clip-path="url(#fe2fc2c34d)"><g clip-rule="nonzero" clip-path="url(#fdffd10cbe)"><g clip-rule="nonzero" clip-path="url(#bed8598d80)"><rect x="0" width="39" height="42" y="0" style="fill:#ffffff;fill-opacity:1;stroke:none;"/></g></g></g></g></g></g><g transform="matrix(1,0,0,1,273,380)"><g clip-path="url(#474cc93d0e)"><g style="fill:#224fa2;fill-opacity:1;"><g transform="translate(0.217753, 74.892035)"><path style="stroke:none" d="M 16.140625 -54.015625 L 16.140625 -43.015625 C 16.140625 -41.085938 16.078125 -39.253906 15.953125 -37.515625 C 15.828125 -35.785156 15.726562 -34.5625 15.65625 -33.84375 L 16.21875 -33.84375 C 17.050781 -35.1875 18.035156 -36.273438 19.171875 -37.109375 C 20.316406 -37.941406 21.582031 -38.550781 22.96875 -38.9375 C 24.363281 -39.332031 25.859375 -39.53125 27.453125 -39.53125 C 30.253906 -39.53125 32.695312 -39.039062 34.78125 -38.0625 C 36.863281 -37.082031 38.484375 -35.546875 39.640625 -33.453125 C 40.796875 -31.359375 41.375 -28.644531 41.375 -25.3125 L 41.375 0 L 30.796875 0 L 30.796875 -22.671875 C 30.796875 -25.441406 30.285156 -27.53125 29.265625 -28.9375 C 28.242188 -30.351562 26.671875 -31.0625 24.546875 -31.0625 C 22.410156 -31.0625 20.726562 -30.570312 19.5 -29.59375 C 18.28125 -28.613281 17.414062 -27.164062 16.90625 -25.25 C 16.394531 -23.34375 16.140625 -21.015625 16.140625 -18.265625 L 16.140625 0 L 5.546875 0 L 5.546875 -54.015625 Z M 16.140625 -54.015625 "/></g></g><g style="fill:#224fa2;fill-opacity:1;"><g transform="translate(46.934453, 74.892035)"><path style="stroke:none" d="M 41.171875 -38.8125 L 41.171875 0 L 33.046875 0 L 31.625 -4.96875 L 31.0625 -4.96875 C 30.226562 -3.644531 29.1875 -2.566406 27.9375 -1.734375 C 26.6875 -0.898438 25.3125 -0.289062 23.8125 0.09375 C 22.3125 0.488281 20.75 0.6875 19.125 0.6875 C 16.351562 0.6875 13.9375 0.195312 11.875 -0.78125 C 9.8125 -1.757812 8.207031 -3.289062 7.0625 -5.375 C 5.914062 -7.457031 5.34375 -10.164062 5.34375 -13.5 L 5.34375 -38.8125 L 15.9375 -38.8125 L 15.9375 -16.140625 C 15.9375 -13.359375 16.429688 -11.257812 17.421875 -9.84375 C 18.421875 -8.4375 20.007812 -7.734375 22.1875 -7.734375 C 24.332031 -7.734375 26.019531 -8.222656 27.25 -9.203125 C 28.476562 -10.191406 29.335938 -11.640625 29.828125 -13.546875 C 30.328125 -15.460938 30.578125 -17.796875 30.578125 -20.546875 L 30.578125 -38.8125 Z M 41.171875 -38.8125 "/></g></g><g style="fill:#224fa2;fill-opacity:1;"><g transform="translate(93.651152, 74.892035)"><path style="stroke:none" d="M 51.140625 -39.53125 C 55.535156 -39.53125 58.859375 -38.398438 61.109375 -36.140625 C 63.367188 -33.890625 64.5 -30.28125 64.5 -25.3125 L 64.5 0 L 53.875 0 L 53.875 -22.671875 C 53.875 -25.441406 53.398438 -27.53125 52.453125 -28.9375 C 51.503906 -30.351562 50.035156 -31.0625 48.046875 -31.0625 C 45.242188 -31.0625 43.25 -30.0625 42.0625 -28.0625 C 40.882812 -26.0625 40.296875 -23.195312 40.296875 -19.46875 L 40.296875 0 L 29.71875 0 L 29.71875 -22.671875 C 29.71875 -24.515625 29.507812 -26.0625 29.09375 -27.3125 C 28.675781 -28.5625 28.035156 -29.5 27.171875 -30.125 C 26.316406 -30.75 25.222656 -31.0625 23.890625 -31.0625 C 21.921875 -31.0625 20.375 -30.570312 19.25 -29.59375 C 18.125 -28.613281 17.320312 -27.164062 16.84375 -25.25 C 16.375 -23.34375 16.140625 -21.015625 16.140625 -18.265625 L 16.140625 0 L 5.546875 0 L 5.546875 -38.8125 L 13.640625 -38.8125 L 15.0625 -33.84375 L 15.65625 -33.84375 C 16.445312 -35.1875 17.4375 -36.273438 18.625 -37.109375 C 19.8125 -37.941406 21.125 -38.550781 22.5625 -38.9375 C 24 -39.332031 25.457031 -39.53125 26.9375 -39.53125 C 29.78125 -39.53125 32.191406 -39.066406 34.171875 -38.140625 C 36.148438 -37.222656 37.671875 -35.789062 38.734375 -33.84375 L 39.671875 -33.84375 C 40.828125 -35.832031 42.460938 -37.273438 44.578125 -38.171875 C 46.703125 -39.078125 48.890625 -39.53125 51.140625 -39.53125 Z M 51.140625 -39.53125 "/></g></g><g style="fill:#224fa2;fill-opacity:1;"><g transform="translate(163.448539, 74.892035)"><path style="stroke:none" d="M 21.453125 -39.609375 C 26.660156 -39.609375 30.648438 -38.472656 33.421875 -36.203125 C 36.203125 -33.929688 37.59375 -30.484375 37.59375 -25.859375 L 37.59375 0 L 30.203125 0 L 28.15625 -5.28125 L 27.875 -5.28125 C 26.757812 -3.882812 25.625 -2.75 24.46875 -1.875 C 23.3125 -1 21.976562 -0.351562 20.46875 0.0625 C 18.96875 0.476562 17.144531 0.6875 15 0.6875 C 12.707031 0.6875 10.648438 0.25 8.828125 -0.625 C 7.015625 -1.5 5.585938 -2.84375 4.546875 -4.65625 C 3.503906 -6.476562 2.984375 -8.789062 2.984375 -11.59375 C 2.984375 -15.71875 4.425781 -18.753906 7.3125 -20.703125 C 10.207031 -22.660156 14.550781 -23.742188 20.34375 -23.953125 L 27.078125 -24.15625 L 27.078125 -25.859375 C 27.078125 -27.898438 26.546875 -29.394531 25.484375 -30.34375 C 24.421875 -31.289062 22.9375 -31.765625 21.03125 -31.765625 C 19.15625 -31.765625 17.316406 -31.5 15.515625 -30.96875 C 13.710938 -30.4375 11.910156 -29.765625 10.109375 -28.953125 L 6.59375 -36.109375 C 8.65625 -37.191406 10.960938 -38.046875 13.515625 -38.671875 C 16.078125 -39.296875 18.722656 -39.609375 21.453125 -39.609375 Z M 27.078125 -17.984375 L 22.984375 -17.84375 C 19.554688 -17.75 17.175781 -17.132812 15.84375 -16 C 14.507812 -14.863281 13.84375 -13.375 13.84375 -11.53125 C 13.84375 -9.90625 14.316406 -8.75 15.265625 -8.0625 C 16.222656 -7.382812 17.460938 -7.046875 18.984375 -7.046875 C 21.253906 -7.046875 23.171875 -7.71875 24.734375 -9.0625 C 26.296875 -10.40625 27.078125 -12.3125 27.078125 -14.78125 Z M 27.078125 -17.984375 "/></g></g><g style="fill:#224fa2;fill-opacity:1;"><g transform="translate(206.382088, 74.892035)"><path style="stroke:none" d="M 27.59375 -39.53125 C 31.738281 -39.53125 35.070312 -38.398438 37.59375 -36.140625 C 40.113281 -33.890625 41.375 -30.28125 41.375 -25.3125 L 41.375 0 L 30.796875 0 L 30.796875 -22.671875 C 30.796875 -25.441406 30.289062 -27.53125 29.28125 -28.9375 C 28.269531 -30.351562 26.691406 -31.0625 24.546875 -31.0625 C 21.304688 -31.0625 19.09375 -29.960938 17.90625 -27.765625 C 16.726562 -25.566406 16.140625 -22.398438 16.140625 -18.265625 L 16.140625 0 L 5.546875 0 L 5.546875 -38.8125 L 13.640625 -38.8125 L 15.0625 -33.84375 L 15.65625 -33.84375 C 16.488281 -35.1875 17.523438 -36.273438 18.765625 -37.109375 C 20.003906 -37.941406 21.378906 -38.550781 22.890625 -38.9375 C 24.410156 -39.332031 25.976562 -39.53125 27.59375 -39.53125 Z M 27.59375 -39.53125 "/></g></g><g style="fill:#224fa2;fill-opacity:1;"><g transform="translate(253.098788, 74.892035)"><path style="stroke:none" d="M 21.3125 0.6875 C 17.46875 0.6875 14.191406 -0.0078125 11.484375 -1.40625 C 8.773438 -2.800781 6.710938 -4.96875 5.296875 -7.90625 C 3.890625 -10.851562 3.1875 -14.617188 3.1875 -19.203125 C 3.1875 -23.941406 3.988281 -27.804688 5.59375 -30.796875 C 7.207031 -33.796875 9.441406 -36 12.296875 -37.40625 C 15.160156 -38.820312 18.476562 -39.53125 22.25 -39.53125 C 24.9375 -39.53125 27.253906 -39.269531 29.203125 -38.75 C 31.160156 -38.238281 32.867188 -37.625 34.328125 -36.90625 L 31.203125 -28.703125 C 29.535156 -29.378906 27.984375 -29.929688 26.546875 -30.359375 C 25.117188 -30.785156 23.6875 -31 22.25 -31 C 20.394531 -31 18.851562 -30.5625 17.625 -29.6875 C 16.40625 -28.820312 15.492188 -27.519531 14.890625 -25.78125 C 14.285156 -24.050781 13.984375 -21.878906 13.984375 -19.265625 C 13.984375 -16.691406 14.304688 -14.5625 14.953125 -12.875 C 15.609375 -11.1875 16.546875 -9.929688 17.765625 -9.109375 C 18.992188 -8.285156 20.488281 -7.875 22.25 -7.875 C 24.445312 -7.875 26.398438 -8.171875 28.109375 -8.765625 C 29.828125 -9.359375 31.492188 -10.1875 33.109375 -11.25 L 33.109375 -2.1875 C 31.492188 -1.164062 29.800781 -0.429688 28.03125 0.015625 C 26.257812 0.460938 24.019531 0.6875 21.3125 0.6875 Z M 21.3125 0.6875 "/></g></g><g style="fill:#224fa2;fill-opacity:1;"><g transform="translate(289.646102, 74.892035)"><path style="stroke:none" d="M 16.140625 0 L 5.546875 0 L 5.546875 -54.015625 L 16.140625 -54.015625 Z M 16.140625 0 "/></g></g><g style="fill:#224fa2;fill-opacity:1;"><g transform="translate(311.338477, 74.892035)"><path style="stroke:none" d="M 40.828125 -19.46875 C 40.828125 -16.226562 40.390625 -13.359375 39.515625 -10.859375 C 38.648438 -8.359375 37.390625 -6.242188 35.734375 -4.515625 C 34.078125 -2.796875 32.085938 -1.5 29.765625 -0.625 C 27.441406 0.25 24.820312 0.6875 21.90625 0.6875 C 19.175781 0.6875 16.671875 0.25 14.390625 -0.625 C 12.109375 -1.5 10.128906 -2.796875 8.453125 -4.515625 C 6.773438 -6.242188 5.476562 -8.359375 4.5625 -10.859375 C 3.644531 -13.359375 3.1875 -16.226562 3.1875 -19.46875 C 3.1875 -23.78125 3.953125 -27.425781 5.484375 -30.40625 C 7.015625 -33.394531 9.191406 -35.660156 12.015625 -37.203125 C 14.835938 -38.753906 18.203125 -39.53125 22.109375 -39.53125 C 25.742188 -39.53125 28.96875 -38.753906 31.78125 -37.203125 C 34.59375 -35.660156 36.800781 -33.394531 38.40625 -30.40625 C 40.019531 -27.425781 40.828125 -23.78125 40.828125 -19.46875 Z M 13.984375 -19.46875 C 13.984375 -16.925781 14.257812 -14.785156 14.8125 -13.046875 C 15.375 -11.316406 16.242188 -10.007812 17.421875 -9.125 C 18.609375 -8.25 20.148438 -7.8125 22.046875 -7.8125 C 23.921875 -7.8125 25.441406 -8.25 26.609375 -9.125 C 27.773438 -10.007812 28.628906 -11.316406 29.171875 -13.046875 C 29.722656 -14.785156 30 -16.925781 30 -19.46875 C 30 -22.039062 29.722656 -24.175781 29.171875 -25.875 C 28.628906 -27.582031 27.769531 -28.863281 26.59375 -29.71875 C 25.414062 -30.570312 23.875 -31 21.96875 -31 C 19.175781 -31 17.144531 -30.035156 15.875 -28.109375 C 14.613281 -26.191406 13.984375 -23.3125 13.984375 -19.46875 Z M 13.984375 -19.46875 "/></g></g><g style="fill:#224fa2;fill-opacity:1;"><g transform="translate(355.347969, 74.892035)"><path style="stroke:none" d="M 41.171875 -38.8125 L 41.171875 0 L 33.046875 0 L 31.625 -4.96875 L 31.0625 -4.96875 C 30.226562 -3.644531 29.1875 -2.566406 27.9375 -1.734375 C 26.6875 -0.898438 25.3125 -0.289062 23.8125 0.09375 C 22.3125 0.488281 20.75 0.6875 19.125 0.6875 C 16.351562 0.6875 13.9375 0.195312 11.875 -0.78125 C 9.8125 -1.757812 8.207031 -3.289062 7.0625 -5.375 C 5.914062 -7.457031 5.34375 -10.164062 5.34375 -13.5 L 5.34375 -38.8125 L 15.9375 -38.8125 L 15.9375 -16.140625 C 15.9375 -13.359375 16.429688 -11.257812 17.421875 -9.84375 C 18.421875 -8.4375 20.007812 -7.734375 22.1875 -7.734375 C 24.332031 -7.734375 26.019531 -8.222656 27.25 -9.203125 C 28.476562 -10.191406 29.335938 -11.640625 29.828125 -13.546875 C 30.328125 -15.460938 30.578125 -17.796875 30.578125 -20.546875 L 30.578125 -38.8125 Z M 41.171875 -38.8125 "/></g></g><g style="fill:#224fa2;fill-opacity:1;"><g transform="translate(402.064668, 74.892035)"><path style="stroke:none" d="M 17.84375 0.6875 C 13.507812 0.6875 9.984375 -1.003906 7.265625 -4.390625 C 4.546875 -7.785156 3.1875 -12.765625 3.1875 -19.328125 C 3.1875 -25.972656 4.5625 -31 7.3125 -34.40625 C 10.070312 -37.820312 13.675781 -39.53125 18.125 -39.53125 C 19.96875 -39.53125 21.59375 -39.273438 23 -38.765625 C 24.414062 -38.265625 25.640625 -37.582031 26.671875 -36.71875 C 27.703125 -35.863281 28.578125 -34.90625 29.296875 -33.84375 L 29.640625 -33.84375 C 29.503906 -34.582031 29.335938 -35.675781 29.140625 -37.125 C 28.941406 -38.570312 28.84375 -40.0625 28.84375 -41.59375 L 28.84375 -54.015625 L 39.46875 -54.015625 L 39.46875 0 L 31.34375 0 L 29.296875 -5.03125 L 28.84375 -5.03125 C 28.175781 -3.96875 27.335938 -3 26.328125 -2.125 C 25.328125 -1.257812 24.128906 -0.570312 22.734375 -0.0625 C 21.347656 0.4375 19.71875 0.6875 17.84375 0.6875 Z M 21.5625 -7.734375 C 24.445312 -7.734375 26.484375 -8.59375 27.671875 -10.3125 C 28.867188 -12.039062 29.503906 -14.644531 29.578125 -18.125 L 29.578125 -19.265625 C 29.578125 -23.035156 29 -25.921875 27.84375 -27.921875 C 26.6875 -29.929688 24.535156 -30.9375 21.390625 -30.9375 C 19.046875 -30.9375 17.210938 -29.925781 15.890625 -27.90625 C 14.578125 -25.894531 13.921875 -22.992188 13.921875 -19.203125 C 13.921875 -15.398438 14.582031 -12.535156 15.90625 -10.609375 C 17.238281 -8.691406 19.125 -7.734375 21.5625 -7.734375 Z M 21.5625 -7.734375 "/></g></g></g></g></g></svg>